<?xml version="1.0" encoding="UTF-8" standalone="no"?><!DOCTYPE svg PUBLIC "-//W3C//DTD SVG 1.1//EN" "http://www.w3.org/Graphics/SVG/1.1/DTD/svg11.dtd"><svg width="100%" height="100%" viewBox="0 0 24 24" version="1.1" xmlns="http://www.w3.org/2000/svg" xmlns:xlink="http://www.w3.org/1999/xlink" xml:space="preserve" xmlns:serif="http://www.serif.com/" style="fill-rule:evenodd;clip-rule:evenodd;stroke-linejoin:round;stroke-miterlimit:2;"><path d="M8.25,16.5l6,-4.5l-6,-4.5l0,9Zm6,-9l0,9l1.5,0l0,-9l-1.5,0Z" style="fill:#333;fill-rule:nonzero;"/><path d="M13.765,1.649c-1.168,-0.199 -2.362,-0.199 -3.53,0l-0.318,1.673c-0.911,0.218 -1.782,0.579 -2.58,1.068l-1.408,-0.957c-0.967,0.685 -1.811,1.529 -2.496,2.496l0.957,1.408c-0.489,0.798 -0.85,1.669 -1.068,2.58l-1.673,0.318c-0.199,1.168 -0.199,2.362 0,3.53l1.673,0.318c0.218,0.911 0.579,1.782 1.068,2.58l-0.957,1.408c0.685,0.967 1.529,1.811 2.496,2.496l1.408,-0.957c0.798,0.489 1.669,0.85 2.58,1.068l0.318,1.673c1.168,0.199 2.362,0.199 3.53,0l0.318,-1.673c0.911,-0.218 1.782,-0.579 2.58,-1.068l1.408,0.957c0.967,-0.685 1.811,-1.529 2.496,-2.496l-0.957,-1.408c0.489,-0.798 0.85,-1.669 1.068,-2.58l1.673,-0.318c0.199,-1.168 0.199,-2.362 0,-3.53l-1.673,-0.318c-0.218,-0.911 -0.579,-1.782 -1.068,-2.58l0.957,-1.408c-0.685,-0.967 -1.529,-1.811 -2.496,-2.496l-1.408,0.957c-0.798,-0.489 -1.669,-0.85 -2.58,-1.068l-0.318,-1.673Zm-1.765,3.526c3.767,0 6.825,3.058 6.825,6.825c0,3.767 -3.058,6.825 -6.825,6.825c-3.767,0 -6.825,-3.058 -6.825,-6.825c0,-3.767 3.058,-6.825 6.825,-6.825Z" style="fill:url(#_Linear1);"/><defs><linearGradient id="_Linear1" x1="0" y1="0" x2="1" y2="0" gradientUnits="userSpaceOnUse" gradientTransform="matrix(-3.37706e-15,21,-21,-3.37706e-15,12,1.5)"><stop offset="0" style="stop-color:#f70;stop-opacity:1"/><stop offset="1" style="stop-color:#f30;stop-opacity:1"/></linearGradient></defs></svg>